<svg width="64" height="64" viewBox="0 0 64 64" fill="none" xmlns="http://www.w3.org/2000/svg">
<rect width="64" height="64" rx="9" fill="black"/>
<path d="M13.1672 35.3287C14.5549 35.3287 15.68 34.2149 15.68 32.8409V31.4004C15.68 30.0264 16.805 28.9126 18.1927 28.9126L19.7629 28.9126C21.1506 28.9126 22.2756 27.7987 22.2756 26.4247V24.4883C22.2756 23.1143 23.4006 22.0004 24.7884 22.0004L26.3598 22.0004C27.7476 22.0004 28.8726 20.8866 28.8726 19.5125V18.4879C28.8726 17.1139 29.9976 16 31.3854 16L32.9561 16C34.3439 16 35.4689 17.1139 35.4689 18.4879V19.9665C35.4689 21.3406 36.5939 22.4544 37.9817 22.4544H39.5511C40.9389 22.4544 42.0639 23.5683 42.0639 24.9423V26.4247C42.0639 27.7987 43.1889 28.9126 44.5767 28.9126H46.1475C47.5352 28.9126 48.6602 30.0264 48.6602 31.4004V32.8415C48.6602 34.2155 49.7852 35.3294 51.173 35.3294H52.6811C54.0688 35.3294 55.1938 36.4432 55.1938 37.8172V39.3718C55.1938 40.7458 54.0688 41.8596 52.6811 41.8596H51.1103C49.7226 41.8596 48.5975 40.7458 48.5975 39.3718V37.9307C48.5975 36.5567 47.4725 35.4429 46.0848 35.4429H44.5767C43.1889 35.4429 42.0639 34.329 42.0639 32.955V31.4726C42.0639 30.0985 40.9389 28.9847 39.5511 28.9847H37.981C36.5933 28.9847 35.4683 27.8708 35.4683 26.4968V25.0188C35.4683 23.6448 34.3432 22.5309 32.9555 22.5309H31.8433C30.4555 22.5309 29.3305 23.6448 29.3305 25.0188V26.4968C29.3305 27.8708 28.2055 28.9847 26.8177 28.9847H24.7884C23.4006 28.9847 22.2756 30.0985 22.2756 31.4726V32.955C22.2756 34.329 21.1506 35.4429 19.7629 35.4429L18.3029 35.4429C16.9152 35.4429 15.7902 36.5567 15.7902 37.9307V39.3718C15.7902 40.7458 14.6651 41.8596 13.2774 41.8596H11.7066C10.3189 41.8596 9.19385 40.7458 9.19385 39.3718L9.19385 37.8166C9.19385 36.4426 10.3189 35.3287 11.7066 35.3287H13.1672Z" fill="#40FFCB"/>
<path d="M19.4846 41.4697C20.8724 41.4697 21.9974 40.3559 21.9974 38.9818V37.3966C21.9974 36.0226 23.1224 34.9087 24.5102 34.9087L26.3596 34.9087C27.7474 34.9087 28.8724 33.7949 28.8724 32.4208V31.0839C28.8724 29.7099 29.9974 28.596 31.3852 28.596H32.9559C34.3437 28.596 35.4687 29.7099 35.4687 31.0839V32.5651C35.4687 33.9391 36.5937 35.0529 37.9815 35.0529H39.5516C40.9394 35.0529 42.0644 36.1668 42.0644 37.5408V38.9818C42.0644 40.3559 43.1894 41.4697 44.5772 41.4697H46.1416C47.5293 41.4697 48.6544 42.5836 48.6544 43.9576V45.5121C48.6544 46.8861 47.5293 48 46.1416 48H44.5708C43.1831 48 42.058 46.8861 42.058 45.5121V44.0717C42.058 42.6977 40.933 41.5838 39.5453 41.5838H37.9809C36.5931 41.5838 35.4681 40.47 35.4681 39.096V37.6148C35.4681 36.2408 34.3431 35.1269 32.9553 35.1269H31.5302C30.1424 35.1269 29.0174 36.2408 29.0174 37.6148V39.3719C29.0174 40.7459 27.8924 41.8598 26.5046 41.8598H24.8991C23.5113 41.8598 22.3863 42.9736 22.3863 44.3476V45.5121C22.3863 46.8861 21.2613 48 19.8735 48H18.3028C16.915 48 15.79 46.8861 15.79 45.5121V43.9576C15.79 42.5836 16.915 41.4697 18.3028 41.4697H19.4846Z" fill="#40FFCB"/>
</svg>
