<svg width="323" height="224" viewBox="0 0 323 224" fill="none" xmlns="http://www.w3.org/2000/svg">
<path d="M27.8996 135.301C37.6442 135.301 45.5437 127.504 45.5437 117.886L45.5437 107.803C45.5437 98.185 53.4433 90.388 63.1878 90.388L74.2128 90.388C83.9573 90.388 91.8569 82.591 91.8569 72.9729L91.8569 59.4179C91.8569 49.7998 99.7564 42.0029 109.501 42.0029L120.535 42.0029C130.279 42.0029 138.179 34.2059 138.179 24.5878L138.179 17.4151C138.179 7.79699 146.078 -4.08015e-06 155.823 -2.79677e-06L166.852 -1.34418e-06C176.597 -6.08083e-08 184.496 7.797 184.496 17.4151L184.496 27.7658C184.496 37.3838 192.396 45.1808 202.141 45.1808L213.161 45.1809C222.906 45.1809 230.805 52.9778 230.805 62.5959L230.805 72.9729C230.805 82.591 238.705 90.388 248.449 90.388L259.479 90.388C269.223 90.388 277.123 98.185 277.123 107.803L277.123 117.89C277.123 127.509 285.022 135.306 294.767 135.306L305.356 135.306C315.101 135.306 323 143.103 323 152.721L323 163.602C323 173.22 315.101 181.017 305.356 181.017L294.327 181.017C284.582 181.017 276.682 173.22 276.682 163.602L276.682 153.515C276.682 143.897 268.783 136.1 259.038 136.1L248.449 136.1C238.705 136.1 230.805 128.303 230.805 118.685L230.805 108.308C230.805 98.6898 222.906 90.8928 213.161 90.8928L202.136 90.8928C192.392 90.8928 184.492 83.0958 184.492 73.4777L184.492 63.1314C184.492 53.5134 176.593 45.7164 166.848 45.7164L159.038 45.7164C149.294 45.7164 141.394 53.5133 141.394 63.1314L141.394 73.4777C141.394 83.0958 133.495 90.8928 123.75 90.8928L109.501 90.8928C99.7564 90.8928 91.8569 98.6898 91.8569 108.308L91.8569 118.685C91.8569 128.303 83.9573 136.1 74.2128 136.1L63.9617 136.1C54.2171 136.1 46.3175 143.897 46.3175 153.515L46.3175 163.602C46.3175 173.22 38.418 181.017 28.6734 181.017L17.6441 181.017C7.8995 181.017 -2.93788e-05 173.22 -2.8123e-05 163.602L-2.67017e-05 152.716C-2.5446e-05 143.098 7.89951 135.301 17.6441 135.301L27.8996 135.301Z" fill="#5DFFCA"/>
<path d="M72.2591 178.288C82.0037 178.288 89.9033 170.491 89.9033 160.873L89.9033 149.776C89.9033 140.158 97.8028 132.361 107.547 132.361L120.534 132.361C130.278 132.361 138.178 124.564 138.178 114.946L138.178 105.587C138.178 95.9691 146.077 88.1721 155.822 88.1721L166.851 88.1721C176.596 88.1721 184.495 95.9691 184.495 105.587L184.495 115.955C184.495 125.573 192.395 133.371 202.139 133.371L213.164 133.371C222.909 133.371 230.808 141.167 230.808 150.786L230.808 160.873C230.808 170.491 238.708 178.288 248.452 178.288L259.437 178.288C269.182 178.288 277.081 186.085 277.081 195.703L277.081 206.585C277.081 216.203 269.182 224 259.437 224L248.408 224C238.663 224 230.764 216.203 230.764 206.585L230.764 196.502C230.764 186.884 222.864 179.087 213.12 179.087L202.135 179.087C192.39 179.087 184.491 171.29 184.491 161.672L184.491 151.304C184.491 141.685 176.591 133.888 166.847 133.888L156.84 133.888C147.096 133.888 139.196 141.685 139.196 151.304L139.196 163.603C139.196 173.221 131.296 181.018 121.552 181.018L110.278 181.018C100.533 181.018 92.6338 188.815 92.6338 198.433L92.6338 206.585C92.6338 216.203 84.7343 224 74.9897 224L63.9604 224C54.2158 224 46.3162 216.203 46.3162 206.585L46.3162 195.703C46.3163 186.085 54.2158 178.288 63.9604 178.288L72.2591 178.288Z" fill="#5DFFCA"/>
</svg>
